<svg xmlns="http://www.w3.org/2000/svg" width="24" height="24" viewBox="0 0 24 24"><title>3d-square 1</title><path d="M15,1.25H9C3.57,1.25,1.25,3.57,1.25,9v6c0,5.43,2.32,7.75,7.75,7.75h6c5.43,0,7.75-2.32,7.75-7.75V9C22.75,3.57,20.43,1.25,15,1.25ZM21.25,15c0,4.61-1.64,6.25-6.25,6.25H9c-4.61,0-6.25-1.64-6.25-6.25V9C2.75,4.39,4.39,2.75,9,2.75h6c4.61,0,6.25,1.64,6.25,6.25Z" fill="currentColor"/><path d="M16.81,7.4l-3.2-1.78a3.58,3.58,0,0,0-3.22,0L7.19,7.4a3.64,3.64,0,0,0-1.7,2.9v3.39a3.58,3.58,0,0,0,1.7,2.9l3.2,1.78a3.42,3.42,0,0,0,1.61.38,3.3,3.3,0,0,0,1.61-.38l3.2-1.78a3.64,3.64,0,0,0,1.7-2.9V10.3A3.58,3.58,0,0,0,16.81,7.4Zm-5.69-.46A1.84,1.84,0,0,1,12,6.75a1.84,1.84,0,0,1,.88.19l3.2,1.78a1.46,1.46,0,0,1,.29.23L12,11.48,7.63,9a1.54,1.54,0,0,1,.29-.23Zm-3.2,8.33A2.07,2.07,0,0,1,7,13.69V10.31l4.26,2.46V17.1l-.13-.05ZM17,13.69a2.09,2.09,0,0,1-.93,1.58l-3.2,1.78-.13.05V12.76L17,10.3h0Z" fill="currentColor"/></svg>