<svg xmlns="http://www.w3.org/2000/svg" width="24" height="24" viewBox="0 0 24 24"><title>discount-shape 1</title><path d="M22.06,10.34,20.54,8.82a1.14,1.14,0,0,1-.25-.6V6.06a2.35,2.35,0,0,0-2.35-2.35H15.78a1.14,1.14,0,0,1-.6-.25L13.66,1.94a2.42,2.42,0,0,0-3.32,0L8.82,3.46a1.14,1.14,0,0,1-.6.25H6.06A2.35,2.35,0,0,0,3.71,6.06V8.22a1.14,1.14,0,0,1-.25.6L1.94,10.34A2.3,2.3,0,0,0,1.25,12a2.34,2.34,0,0,0,.69,1.66l1.52,1.52a1.14,1.14,0,0,1,.25.6v2.16a2.35,2.35,0,0,0,2.35,2.35H8.22a1.14,1.14,0,0,1,.6.25l1.52,1.52a2.34,2.34,0,0,0,3.32,0l1.52-1.52a1.14,1.14,0,0,1,.6-.25h2.16a2.35,2.35,0,0,0,2.35-2.35V15.78a1.14,1.14,0,0,1,.25-.6l1.52-1.52A2.3,2.3,0,0,0,22.75,12,2.34,2.34,0,0,0,22.06,10.34ZM21,12.6l-1.52,1.52a2.58,2.58,0,0,0-.69,1.66v2.16a.85.85,0,0,1-.85.85H15.78a2.58,2.58,0,0,0-1.66.69L12.6,21a.87.87,0,0,1-1.2,0L9.88,19.48a2.58,2.58,0,0,0-1.66-.69H6.06a.85.85,0,0,1-.85-.85V15.78a2.58,2.58,0,0,0-.69-1.66L3,12.6a.85.85,0,0,1,0-1.2L4.52,9.88a2.58,2.58,0,0,0,.69-1.66V6.06a.85.85,0,0,1,.85-.85H8.22a2.58,2.58,0,0,0,1.66-.69L11.4,3a.87.87,0,0,1,1.2,0l1.52,1.52a2.58,2.58,0,0,0,1.66.69h2.16a.85.85,0,0,1,.85.85V8.22a2.58,2.58,0,0,0,.69,1.66L21,11.4a.85.85,0,0,1,0,1.2Z" fill="currentColor"/><path d="M15,14a1,1,0,1,0,1,1A1,1,0,0,0,15,14Z" fill="currentColor"/><path d="M9,10A1,1,0,1,0,8,9,1,1,0,0,0,9,10Z" fill="currentColor"/><path d="M15.53,8.47a.75.75,0,0,0-1.06,0l-6,6a.75.75,0,0,0,0,1.06.75.75,0,0,0,1.06,0l6-6A.75.75,0,0,0,15.53,8.47Z" fill="currentColor"/></svg>