<svg xmlns="http://www.w3.org/2000/svg" width="24" height="24" viewBox="0 0 24 24"><path d="M15,1.25H9C3.57,1.25,1.25,3.57,1.25,9v6c0,5.43,2.32,7.75,7.75,7.75h6c5.43,0,7.75-2.32,7.75-7.75V9C22.75,3.57,20.43,1.25,15,1.25ZM21.25,15c0,4.61-1.64,6.25-6.25,6.25H9c-4.61,0-6.25-1.64-6.25-6.25V9C2.75,4.39,4.39,2.75,9,2.75h6c4.61,0,6.25,1.64,6.25,6.25Z" fill="currentColor"/><path d="M9.86,7.2a4.9,4.9,0,0,0-1.33,4.48L6.24,14a1.87,1.87,0,0,0-.47,1.44l.16,1.21a1.75,1.75,0,0,0,1.46,1.45l1.19.16.22,0a1.79,1.79,0,0,0,1.24-.5l2.29-2.28a4.86,4.86,0,0,0,4.48-1.33h0a4.89,4.89,0,0,0,1.44-3.48A4.83,4.83,0,0,0,16.81,7.2,4.93,4.93,0,0,0,9.86,7.2Zm5.89,5.88a3.36,3.36,0,0,1-3.42.84.76.76,0,0,0-.76.19l-1.11,1.11-.33-.33a.75.75,0,0,0-1.06,0,.75.75,0,0,0,0,1.06l.32.33L9,16.69a.39.39,0,0,1-.19.06l-1.21-.16a.33.33,0,0,1-.17-.18l-.16-1.2A.47.47,0,0,1,7.31,15l2.58-2.58a.75.75,0,0,0,.19-.75,3.41,3.41,0,1,1,5.67,1.39Z" fill="currentColor"/><path d="M13.4,9.7h0a1,1,0,1,0,1,1A1,1,0,0,0,13.39,9.7Z" fill="currentColor"/></svg>