<svg xmlns="http://www.w3.org/2000/svg" width="24" height="24" viewBox="0 0 24 24"><title>message-question 1</title><path d="M8,22.32a1.76,1.76,0,0,1-.83-.21,1.74,1.74,0,0,1-.92-1.54V19.15a5.39,5.39,0,0,1-5-5.71v-6A5.44,5.44,0,0,1,7,1.69H17a5.44,5.44,0,0,1,5.75,5.75v6A5.44,5.44,0,0,1,17,19.19H13.23L9,22A1.78,1.78,0,0,1,8,22.32ZM7,3.18A4,4,0,0,0,2.75,7.43v6A4,4,0,0,0,7,17.68a.76.76,0,0,1,.75.75v2.13a.25.25,0,0,0,.39.21l4.45-3a.77.77,0,0,1,.42-.13h4a4,4,0,0,0,4.25-4.25v-6A4,4,0,0,0,17,3.18Z" fill="currentColor"/><path d="M12,12.11a.76.76,0,0,1-.75-.75v-.21a2.33,2.33,0,0,1,1.17-2c.37-.25.49-.42.49-.68a.91.91,0,0,0-1.82,0,.75.75,0,0,1-1.5,0,2.41,2.41,0,0,1,4.82,0,2.29,2.29,0,0,1-1.15,1.92c-.39.26-.51.43-.51.71v.21A.75.75,0,0,1,12,12.11Z" fill="currentColor"/><path d="M12,14.6a.75.75,0,1,1,.75-.75A.75.75,0,0,1,12,14.6Z" fill="currentColor"/></svg>