<svg xmlns="http://www.w3.org/2000/svg" width="24" height="24" viewBox="0 0 24 24"><title>wallet-money 2</title><path d="M7.18,10.25a4.7,4.7,0,0,0-2.29.6l-.12.06L4.68,11a3.54,3.54,0,0,0-.54.39,3.62,3.62,0,0,0-1.3,2.75c0,.06,0,.11,0,.16v4.62a4.12,4.12,0,0,0,4.33,3.86,4.11,4.11,0,0,0,4.32-3.86V14.11a3.66,3.66,0,0,0-1.3-2.77A4.64,4.64,0,0,0,7.18,10.25Zm-2,2.18a2.76,2.76,0,0,1,.39-.28h0a2.94,2.94,0,0,1,.44-.2,3.28,3.28,0,0,1,1.09-.18,3.11,3.11,0,0,1,2.05.74A2.07,2.07,0,0,1,10,14.11a1.87,1.87,0,0,1-.27,1A3,3,0,0,1,7.17,16.3a3,3,0,0,1-2.56-1.22,2,2,0,0,1-.26-.89v-.08a2.19,2.19,0,0,1,.83-1.67ZM10,16.93c-.05,1.21-1.23,2.12-2.81,2.12s-2.77-.9-2.82-2.11a4.9,4.9,0,0,0,2.81.86A4.82,4.82,0,0,0,10,16.93ZM7.18,21.25A2.93,2.93,0,0,1,4.6,19.87a4.9,4.9,0,0,0,.87.39h0a5.57,5.57,0,0,0,.73.19l.12,0a5.71,5.71,0,0,0,.84.07A5.57,5.57,0,0,0,8,20.48l.21,0a5.09,5.09,0,0,0,.56-.14L9,20.22A3.22,3.22,0,0,0,9.5,20l.17-.08.08,0A2.91,2.91,0,0,1,7.18,21.25Z" fill="currentColor"/><path d="M21.75,9.39V8.5a5.39,5.39,0,0,0-4.88-5.69A5.69,5.69,0,0,0,16,2.75H7a5.06,5.06,0,0,0-.9.07A5.39,5.39,0,0,0,1.25,8.5v2a.75.75,0,0,0,1.5,0v-2A3.93,3.93,0,0,1,6.3,4.3a5.36,5.36,0,0,1,.7,0h9a5,5,0,0,1,.66,0A3.93,3.93,0,0,1,20.25,8.5v.7H18.92A2.69,2.69,0,0,0,17,10a2.75,2.75,0,0,0-.65,1l0,0a2.71,2.71,0,0,0-.16,1.2h0a2.86,2.86,0,0,0,2.36,2.51,3.31,3.31,0,0,0,.55.05h1.21v.7A4,4,0,0,1,16,19.75H13.5a.75.75,0,0,0,0,1.5H16a5.44,5.44,0,0,0,5.75-5.75v-.88a1.77,1.77,0,0,0,1-1.59V11A1.74,1.74,0,0,0,21.75,9.39ZM19,13.3a1.5,1.5,0,0,1-.52-.09,1.33,1.33,0,0,1-.89-1.1,1.27,1.27,0,0,1,.39-1,1.23,1.23,0,0,1,.9-.37H21a.28.28,0,0,1,.27.27V13a.27.27,0,0,1-.25.27Z" fill="currentColor"/></svg>